<?xml version="1.0" standalone="no"?><svg xmlns="http://www.w3.org/2000/svg" viewBox="0 0 1440 320"><path fill="#ff5500" fill-opacity="1" d="M0,192L30,165.3C60,139,120,85,180,74.7C240,64,300,96,360,112C420,128,480,128,540,144C600,160,660,192,720,208C780,224,840,224,900,208C960,192,1020,160,1080,165.3C1140,171,1200,213,1260,192C1320,171,1380,85,1410,42.7L1440,0L1440,0L1410,0C1380,0,1320,0,1260,0C1200,0,1140,0,1080,0C1020,0,960,0,900,0C840,0,780,0,720,0C660,0,600,0,540,0C480,0,420,0,360,0C300,0,240,0,180,0C120,0,60,0,30,0L0,0Z"></path></svg>